<mxfile host="65bd71144e">
    <diagram id="9E0EMKP_WPmAEEKmuZ-b" name="Page-1">
        <mxGraphModel dx="1731" dy="917" grid="1" gridSize="10" guides="1" tooltips="1" connect="1" arrows="1" fold="1" page="1" pageScale="1" pageWidth="850" pageHeight="1100" math="0" shadow="0">
            <root>
                <mxCell id="0"/>
                <mxCell id="1" parent="0"/>
                <mxCell id="2" value="&lt;font style=&quot;font-size: 17px;&quot;&gt;Formatting&amp;nbsp;&lt;br&gt;&lt;font style=&quot;font-size: 17px;&quot; face=&quot;Courier New&quot;&gt;printf(&quot;string here %s, %f\n&quot;, &quot;string&quot;, var1)&lt;br&gt;%s %d %f %c&lt;br&gt;$%-,8.2f == $5,654.56&lt;/font&gt;&lt;/font&gt;" style="rounded=1;whiteSpace=wrap;html=1;align=left;" vertex="1" parent="1">
                    <mxGeometry x="-70" y="20" width="520" height="130" as="geometry"/>
                </mxCell>
                <mxCell id="3" value="&lt;font style=&quot;font-size: 18px;&quot;&gt;++variable&lt;br&gt;&lt;font style=&quot;font-size: 18px;&quot; color=&quot;#cc99ff&quot; face=&quot;Helvetica&quot;&gt;add 1, then call&lt;br&gt;&lt;/font&gt;&lt;br&gt;variable --&lt;br&gt;&lt;font style=&quot;font-size: 18px;&quot; color=&quot;#6868df&quot; face=&quot;Helvetica&quot;&gt;call, then add 1&lt;/font&gt;&lt;/font&gt;" style="rounded=1;whiteSpace=wrap;html=1;fontFamily=Courier New;align=center;perimeterSpacing=4;strokeWidth=1;" vertex="1" parent="1">
                    <mxGeometry x="-70" y="160" width="160" height="120" as="geometry"/>
                </mxCell>
                <mxCell id="5" value="&lt;font style=&quot;font-size: 17px;&quot;&gt;you can make a print string a variable&lt;br&gt;&lt;/font&gt;&lt;div style=&quot;text-align: left; font-size: 17px;&quot;&gt;&lt;span style=&quot;color: rgb(255, 255, 255); background-color: initial;&quot;&gt;&lt;font style=&quot;font-size: 17px;&quot;&gt;buf = String.format(&quot;\n\nThe value is %f&quot;, value)&lt;/font&gt;&lt;/span&gt;&lt;/div&gt;&lt;font style=&quot;font-size: 17px;&quot; color=&quot;#ffffff&quot;&gt;&lt;div style=&quot;text-align: left;&quot;&gt;&lt;span style=&quot;background-color: initial;&quot;&gt;System.out.print(buf)&lt;/span&gt;&lt;/div&gt;&lt;/font&gt;" style="rounded=1;whiteSpace=wrap;html=1;fontFamily=Courier New;fontColor=#CC99FF;" vertex="1" parent="1">
                    <mxGeometry x="-70" y="300" width="520" height="100" as="geometry"/>
                </mxCell>
                <mxCell id="11" value="&lt;div style=&quot;color: rgb(201, 209, 217); background-color: rgb(13, 17, 23); font-family: Menlo, Monaco, &amp;quot;Courier New&amp;quot;, monospace; line-height: 18px; font-size: 16px;&quot;&gt;&lt;font style=&quot;font-size: 16px;&quot;&gt;outfile.&lt;span style=&quot;color: rgb(210, 168, 255);&quot;&gt;printf&lt;/span&gt;(&lt;span style=&quot;color: rgb(165, 214, 255);&quot;&gt;&quot;%-16s %-4d $%6.2f&lt;/span&gt;&lt;span style=&quot;color: rgb(236, 142, 44);&quot;&gt;\n&lt;/span&gt;&lt;span style=&quot;color: rgb(165, 214, 255);&quot;&gt;&quot;&lt;/span&gt;, &lt;span style=&quot;color: rgb(121, 192, 255);&quot;&gt;pepString&lt;/span&gt;, pepTotal, pepTotal &lt;span style=&quot;color: rgb(236, 142, 44);&quot;&gt;*&lt;/span&gt; &lt;span style=&quot;color: rgb(121, 192, 255);&quot;&gt;pepPrice&lt;/span&gt;);&lt;/font&gt;&lt;/div&gt;&lt;div style=&quot;color: rgb(201, 209, 217); background-color: rgb(13, 17, 23); font-family: Menlo, Monaco, &amp;quot;Courier New&amp;quot;, monospace; line-height: 18px; font-size: 16px;&quot;&gt;&lt;font style=&quot;font-size: 16px;&quot;&gt;&lt;br&gt;&lt;/font&gt;&lt;/div&gt;&lt;div style=&quot;color: rgb(201, 209, 217); background-color: rgb(13, 17, 23); font-family: Menlo, Monaco, &amp;quot;Courier New&amp;quot;, monospace; line-height: 18px; font-size: 16px;&quot;&gt;&lt;div style=&quot;line-height: 18px;&quot;&gt;&lt;font style=&quot;font-size: 16px;&quot;&gt;&lt;span style=&quot;color: rgb(253, 172, 84);&quot;&gt;System&lt;/span&gt;.&lt;span style=&quot;color: rgb(121, 192, 255);&quot;&gt;out&lt;/span&gt;.&lt;span style=&quot;color: rgb(210, 168, 255);&quot;&gt;println&lt;/span&gt; (&lt;span style=&quot;color: rgb(165, 214, 255);&quot;&gt;&quot;When t = &quot;&lt;/span&gt; &lt;span style=&quot;color: rgb(236, 142, 44);&quot;&gt;+&lt;/span&gt; time);&lt;/font&gt;&lt;/div&gt;&lt;/div&gt;" style="rounded=1;whiteSpace=wrap;html=1;strokeWidth=1;fontFamily=Courier New;fontSize=17;fontColor=#FFFFFF;align=left;" vertex="1" parent="1">
                    <mxGeometry x="-90" y="450" width="840" height="200" as="geometry"/>
                </mxCell>
            </root>
        </mxGraphModel>
    </diagram>
</mxfile>